<?xml version="1.0" standalone="no"?><!DOCTYPE svg PUBLIC "-//W3C//DTD SVG 1.1//EN" "http://www.w3.org/Graphics/SVG/1.1/DTD/svg11.dtd"><svg class="icon" height="512" viewBox="0 0 1024 1024" version="1.1" xmlns="http://www.w3.org/2000/svg"><path d="M961.503829 631.744149V124.448343C987.839819 118.144345 1007.999811 92.960355 1007.999811 63.040366 1007.999811 28.352379 980.095822 0.00039 945.983835 0.00039c-29.439989 0-52.67198 20.479992-60.447977 47.263982H386.464048A62.047976 62.047976 0 0 0 325.984071 0.00039C291.936084 0.00039 264.000094 28.352379 264.000094 63.040366c0 11.007996 3.103999 22.015992 9.279997 31.487988L109.024153 261.50429a55.231979 55.231979 0 0 0-31.007988-9.439996c-34.079987 0-62.015976 28.351989-62.015976 63.039976 0 29.919989 20.159992 53.53598 46.495982 61.439977v508.799806C36.160181 891.71205 16.000189 916.896041 16.000189 946.816029c0 34.687987 27.903989 63.039976 62.015976 63.039976 29.439989 0 52.67198-20.479992 60.447977-47.263982h500.63981a62.047976 62.047976 0 0 0 60.447977 47.263982c34.111987 0 61.983976-28.351989 61.983976-63.039976 0-11.007996-3.071999-22.047992-9.279997-31.487988l162.751939-168.575935c9.279996 6.303998 20.159992 9.471996 30.975988 9.471996 34.111987 0 62.015976-28.351989 62.015976-63.039976 0-29.919989-20.159992-53.53598-46.495982-61.439977z m-247.999906 252.031904V708.92812h172.031935c1.567999 6.303998 3.103999 11.007996 6.207997 15.743994L728.991917 891.68005c-4.639998-3.167999-9.279996-6.303998-15.487994-7.903997z m172.031935-206.367921H713.503923V376.512247C739.839913 370.208249 759.999906 345.024259 759.999906 315.07227c0-11.007996-3.103999-22.079992-9.279997-31.487988l164.287938-167.007936c4.639998 3.167999 10.847996 4.735998 15.487994 6.303997v508.863806a66.111975 66.111975 0 0 0-44.959983 45.663983z m-499.07181 0a66.111975 66.111975 0 0 0-44.959983-45.663983V330.816264h296.031887c6.207998 22.079992 23.263991 39.391985 44.959983 45.695983v300.895885H386.464048zM109.024153 891.68005c-4.671998-3.167999-10.879996-4.735998-15.519994-6.303997V376.512247a66.111975 66.111975 0 0 0 44.959983-45.695983h172.031935v300.927885C284.160087 638.016147 264.000094 663.232137 264.000094 693.184126c0 11.007996 3.103999 22.047992 9.279997 31.487988L108.992153 891.68005z m201.439924-767.231707v174.879933h-171.999935a47.615982 47.615982 0 0 0-6.207997-15.743994l162.751938-167.007936c4.639998 3.167999 9.279996 6.303998 15.487994 7.871997zM295.040083 693.184126a31.359988 31.359988 0 0 1 31.007988-31.519988 31.359988 31.359988 0 0 1 30.975988 31.519988 31.359988 31.359988 0 0 1-31.007988 31.487988 31.359988 31.359988 0 0 1-30.975988-31.487988z m433.919834-378.111856a31.359988 31.359988 0 0 1-30.975988 31.519988 31.359988 31.359988 0 0 1-31.039988-31.519988 31.359988 31.359988 0 0 1 31.039988-31.487988 31.359988 31.359988 0 0 1 30.975988 31.487988zM946.015835 31.520378a31.359988 31.359988 0 0 1 30.975988 31.487988 31.359988 31.359988 0 0 1-30.975988 31.519988 31.359988 31.359988 0 0 1-31.039988-31.519988 31.359988 31.359988 0 0 1 31.039988-31.487988zM386.432048 78.78436h500.639809c1.535999 6.271998 3.103999 11.007996 6.207998 15.743994L728.959917 261.50429a55.231979 55.231979 0 0 0-30.975988-9.439996c-29.439989 0-52.70398 20.479992-60.479977 47.263982H341.472065v-174.879933a66.111975 66.111975 0 0 0 44.959983-45.663983zM325.984071 31.520378a31.359988 31.359988 0 0 1 31.039988 31.487988 31.359988 31.359988 0 0 1-31.039988 31.519988 31.359988 31.359988 0 0 1-30.975988-31.519988 31.359988 31.359988 0 0 1 31.007988-31.487988zM47.040177 315.07227a31.359988 31.359988 0 0 1 31.007988-31.487988 31.359988 31.359988 0 0 1 30.975988 31.487988 31.359988 31.359988 0 0 1-31.007988 31.519988 31.359988 31.359988 0 0 1-30.975988-31.519988z m31.007988 661.663748a31.359988 31.359988 0 0 1-31.039988-31.519988 31.359988 31.359988 0 0 1 31.039988-31.487988 31.359988 31.359988 0 0 1 30.975988 31.487988 31.359988 31.359988 0 0 1-31.007988 31.519988z m559.519787-47.263982H138.464142a47.615982 47.615982 0 0 0-6.207997-15.743994L295.008083 746.720106c9.279996 6.303998 20.159992 9.471996 31.007988 9.471996 29.439989 0 52.67198-20.479992 60.447977-47.263982h296.031887v174.847933a66.111975 66.111975 0 0 0-44.959983 45.695983z m60.479977 47.263982a31.359988 31.359988 0 0 1-31.039988-31.519988 31.359988 31.359988 0 0 1 31.039988-31.487988 31.359988 31.359988 0 0 1 30.975988 31.487988 31.359988 31.359988 0 0 1-30.975988 31.519988z m247.999906-252.063904a31.359988 31.359988 0 0 1-31.039988-31.487988 31.359988 31.359988 0 0 1 31.039988-31.519988 31.359988 31.359988 0 0 1 30.975988 31.519988 31.359988 31.359988 0 0 1-30.975988 31.487988z" /></svg>