<?xml version="1.0" standalone="no"?><!DOCTYPE svg PUBLIC "-//W3C//DTD SVG 1.1//EN" "http://www.w3.org/Graphics/SVG/1.1/DTD/svg11.dtd"><svg class="icon" height="512" viewBox="0 0 1024 1024" version="1.1" xmlns="http://www.w3.org/2000/svg"><path d="M352 224l0 0.096L192.096 384 192 384l0 448 448 0 0-0.096L640.096 832 800 672 800 224 352 224zM768 640l-128 0 0-233.088 0.096 0.096 127.904-128L768 640zM384 256l361.824 0-128 128L384 384 384 256zM608 800 246.624 800l127.936-128L608 672 608 800zM608 640l-224 0 0-224 224 0L608 640zM640 786.816 640 672l114.816 0L640 786.816z" /></svg>