<?xml version="1.0" standalone="no"?><!DOCTYPE svg PUBLIC "-//W3C//DTD SVG 1.1//EN" "http://www.w3.org/Graphics/SVG/1.1/DTD/svg11.dtd"><svg class="icon" height="512" viewBox="0 0 1024 1024" version="1.1" xmlns="http://www.w3.org/2000/svg"><path d="M908.352585 481.118666c-2.322905-0.656963-4.759397-1.010003-7.27366-1.010003l-0.552585 0-2.601244 0L129.925606 480.108662l-2.601244 0-0.886183 0c-4.163833 0-8.114818 0.967024-11.682064 2.692319-10.685363 4.803399-18.130939 15.532765-18.130939 28.006867l0 258.601756c0 12.477172 7.448646 23.208585 18.138102 28.009937 3.564175 1.723248 7.514137 2.689249 11.6749 2.689249l0.886183 0 2.601244 0 767.999488 0 2.601244 0 0.398066 0c1.788739 0 3.536546-0.186242 5.234211-0.524956 14.262842-2.64627 25.066909-15.144932 25.066909-30.17423L931.225525 510.807848C931.224502 496.559333 921.515373 484.58051 908.352585 481.118666zM160.624792 544.109302l64.002686 0 0 97.300047c0 16.954137 13.745049 30.699186 30.698163 30.699186l2.600221 0c16.954137 0 30.699186-13.745049 30.699186-30.699186l0-97.300047 63.688531 0 0 31.844266c0 17.758456 14.396895 32.155351 32.155351 32.155351 17.759479 0 32.155351-14.395872 32.155351-32.155351l0-31.844266 63.958684 0 0 32.023344c0 17.659195 14.316054 31.976272 31.976272 31.976272s31.976272-14.317077 31.976272-31.976272l0-32.023344 64.088644 0 0 97.300047c0 16.954137 13.746072 30.699186 30.699186 30.699186l2.600221 0c16.954137 0 30.699186-13.745049 30.699186-30.699186l0-97.300047 64.001663 0 0 31.391964c0 17.660218 14.316054 31.976272 31.976272 31.976272s31.976272-14.316054 31.976272-31.976272l0-31.391964 66.648956 0 0 191.999872L160.624792 736.109174 160.624792 544.109302zM126.183376 415.305751l3.741207 0c16.954137 0 30.699186-13.745049 30.699186-30.699186l0-32.498158 702.961216 0 0 32.498158c0 16.954137 13.745049 30.699186 30.699186 30.699186l3.742231 0c16.953114 0 30.699186-13.745049 30.699186-30.699186L928.725588 254.004041c0-16.954137-13.746072-30.699186-30.699186-30.699186l-3.742231 0c-16.954137 0-30.699186 13.745049-30.699186 30.699186l0 32.498158L160.624792 286.5022l0-32.498158c0-16.954137-13.745049-30.699186-30.699186-30.699186l-3.741207 0c-16.954137 0-30.699186 13.745049-30.699186 30.699186l0 130.602523C95.48419 401.560702 109.229239 415.305751 126.183376 415.305751z" /></svg>