<?xml version="1.0" standalone="no"?><!DOCTYPE svg PUBLIC "-//W3C//DTD SVG 1.1//EN" "http://www.w3.org/Graphics/SVG/1.1/DTD/svg11.dtd"><svg class="icon" height="512" viewBox="0 0 1024 1024" version="1.1" xmlns="http://www.w3.org/2000/svg"><path d="M576 160l32 0 0 704-32 0 0-704ZM672 256 672 288 704 288 830.016 288 864 288 864 672 830.016 672 704 672 672 672 672 704 896 704 896 256ZM128 512l32 0 0 96-32 0 0-96ZM128 704l32 0c16 0 32 0 32 0l0-32L128 672 128 704zM480 288 512 288 512 256 416 256 416 288 452 288ZM128 352l32 0 0 96-32 0 0-96ZM128 256l64 0 0 32-64 0 0-32ZM256 256l96 0 0 32-96 0 0-32ZM416 672 416 704 512 704 512 672 452 672ZM256 672l96 0 0 32-96 0 0-32Z" /></svg>