<?xml version="1.0" standalone="no"?><!DOCTYPE svg PUBLIC "-//W3C//DTD SVG 1.1//EN" "http://www.w3.org/Graphics/SVG/1.1/DTD/svg11.dtd"><svg class="icon" height="512" viewBox="0 0 1024 1024" version="1.1" xmlns="http://www.w3.org/2000/svg"><path d="M962.594465 800.49253l-150.197814 78.95012c-10.368138 5.450129-18.775622-1.158383-18.775622-14.759145V713.087854c0-13.600763 8.40646-29.045523 18.775622-34.493605l150.197814-78.95319c10.370185-5.452175 18.772552 1.155313 18.772552 14.756076v151.597697c-0.001023 13.600763-8.401344 29.0445-18.772552 34.497698z m0-257.320577l-150.197814 78.95012c-10.368138 5.452175-18.775622-1.155313-18.775622-14.754029V455.770348c0-13.603833 8.40646-29.045523 18.775622-34.496676l150.197814-78.953189c10.370185-5.447059 18.772552 1.158383 18.772552 14.759145V508.675278c-0.001023 13.599739-8.401344 29.0445-18.772552 34.496675z m6.561439-271.182282l-176.891779 89.141226c-12.212136 6.15314-32.011064 6.15314-44.223201 0l-176.891779-89.141226c-12.212136-6.15314-12.212136-16.133446 0-22.287609l176.891779-89.144296c12.212136-6.15314 32.011064-6.15314 44.223201 0l176.891779 89.144296c12.21009 6.15314 12.21009 16.133446 0 22.287609z m-265.974677-136.851854l-176.891779 89.144296c-12.212136 6.15314-32.011064 6.15314-44.223201 0l-176.891779-89.144296c-12.212136-6.15314-12.212136-16.133446 0-22.287609l176.891779-89.141227c12.212136-6.151094 32.011064-6.151094 44.223201 0l176.891779 89.141227c12.211113 6.15314 12.211113 16.133446 0 22.287609zM452.852902 271.989671l-176.89485 89.141226c-12.212136 6.15314-32.011064 6.15314-44.2232 0l-176.89178-89.141226c-12.212136-6.15314-12.212136-16.133446 0-22.287609l176.89178-89.144296c12.212136-6.15314 32.011064-6.15314 44.2232 0l176.89485 89.144296c12.209066 6.15314 12.209066 16.133446 0 22.287609z m-391.444297 69.03019l150.197814 79.310323c10.368138 5.478781 18.774599 20.99108 18.774599 34.655288v152.289452c0 13.661138-8.40646 20.299325-18.774599 14.821567L61.408605 542.785144c-10.370185-5.475711-18.774599-20.989033-18.774599-34.652218v-152.289452c0.001023-13.660114 8.404414-20.299325 18.774599-14.823613z m0 257.320576l150.197814 79.3093c10.368138 5.475711 18.774599 20.99108 18.774599 34.652218v152.289452c0 13.661138-8.40646 20.299325-18.774599 14.823614l-150.197814-79.312371c-10.370185-5.472642-18.774599-20.989033-18.774599-34.652217V613.164051c0.001023-13.663184 8.404414-20.302395 18.774599-14.823614zM311.738977 463.398072l150.197814 79.31237c10.368138 5.472642 18.774599 20.99108 18.774599 34.652218v152.289452c0 13.661138-8.40646 20.299325-18.774599 14.823613l-150.197814-79.31237c-10.370185-5.475711-18.774599-20.99108-18.774599-34.652218V478.221686c0-13.661138 8.403391-20.300348 18.774599-14.823614z m0 258.493286l150.197814 79.31237c10.368138 5.472642 18.774599 20.98801 18.774599 34.649148v152.291498c0 13.661138-8.40646 20.297278-18.774599 14.824637l-150.197814-79.31237c-10.370185-5.475711-18.774599-20.989033-18.774599-34.652218V736.714971c0-13.664208 8.403391-20.299325 18.774599-14.823613z m9.081842-335.340511l176.89178-89.141227c12.212136-6.15314 32.014134-6.15314 44.223201 0l176.894849 89.141227c12.209066 6.15314 12.209066 16.131399 0 22.287609L541.9358 497.976612c-12.209066 6.15314-32.011064 6.15314-44.223201 0L320.820819 408.838456c-12.213159-6.15621-12.213159-16.132422 0-22.287609z m241.246483 157.100014l150.197814-78.95012c10.368138-5.452175 18.772552 1.155313 18.772552 14.756075v151.59565c0 13.600763-8.403391 29.045523-18.772552 34.496676l-150.197814 78.95012c-10.370185 5.452175-18.774599-1.155313-18.774598-14.756076V578.144466c0-13.598716 8.405437-29.042453 18.774598-34.493605z m0 258.491239l150.197814-78.94705c10.368138-5.452175 18.772552 1.155313 18.772552 14.756075v151.59565c0 13.600763-8.403391 29.045523-18.772552 34.493606l-150.197814 78.953189c-10.370185 5.450129-18.774599-1.155313-18.774598-14.756075V836.638775c0-13.599739 8.405437-29.043477 18.774598-34.496675z" /></svg>